<svg xmlns="http://www.w3.org/2000/svg" viewBox="0 0 40 28">
  <path
    d="M27.9674 10.3213C28.3097 10.3133 28.6365 10.4322 28.8834 10.6631C30.1894 11.8576 31.1532 14.2471 31.1373 16.4053C31.1372 22.7759 25.9132 27.9997 19.5426 28C14.9955 27.992 10.8698 25.3484 8.96639 21.2314C8.63195 20.5466 8.96621 19.7575 9.65096 19.415C10.3358 19.0806 11.1249 19.4157 11.4674 20.1006C12.9168 23.2459 16.0621 25.2685 19.526 25.2686C24.4315 25.2765 28.4056 21.3107 28.4137 16.4053C28.4137 15.0435 27.792 13.3949 27.0513 12.6543C26.4861 12.1366 26.4861 11.2921 26.9957 10.7188C27.2266 10.4321 27.5693 10.3213 27.9674 10.3213ZM20.5299 10.1533C20.7129 10.1534 20.8881 10.1852 21.0553 10.2568L21.0875 10.2646C25.0054 12.144 25.8648 14.6454 25.8648 16.3496C25.8647 18.0537 25.2438 19.6464 24.0494 20.8408C22.8629 22.0432 21.2464 22.7119 19.5582 22.7119C17.6231 22.7119 16.0385 22.0269 14.5015 20.5537C14.4936 20.5458 14.4852 20.5382 14.4693 20.5303C13.9438 20.0047 13.9517 19.1526 14.4771 18.627C15.0107 18.0934 15.8791 18.0934 16.4127 18.627C17.4318 19.5903 18.3395 20.0439 19.5338 20.0439C21.5325 20.0201 23.1414 18.404 23.1734 16.4053C23.1734 14.9878 22.0981 13.785 19.9957 12.7656C19.94 12.7417 19.8843 12.7097 19.8287 12.6699C19.4865 12.455 19.248 12.1128 19.1842 11.7148V11.7061C19.0729 10.9735 19.5825 10.2814 20.315 10.1699H20.3385C20.3622 10.1699 20.386 10.1612 20.4097 10.1611C20.4415 10.1532 20.4815 10.1533 20.5133 10.1533H20.5299ZM20.442 5.28809C22.3771 5.28809 23.9616 5.97303 25.4986 7.44629C25.5066 7.45425 25.507 7.46176 25.5308 7.46973C26.0564 7.99525 26.0484 8.84743 25.523 9.37305C24.9895 9.90661 24.121 9.90661 23.5875 9.37305C22.5682 8.40955 21.6599 7.95605 20.4654 7.95605C18.4669 7.98019 16.8588 9.59618 16.8267 11.5947C16.8267 13.0122 17.9014 14.2151 20.0035 15.2344C20.0592 15.2583 20.1157 15.2903 20.1715 15.3301C20.5136 15.545 20.7522 15.8873 20.816 16.2852V16.2939C20.9273 17.0265 20.4177 17.7186 19.6851 17.8301H19.6617C19.6378 17.8301 19.6133 17.8389 19.5894 17.8389C19.5577 17.8467 19.5176 17.8467 19.4859 17.8467H19.4703C19.2872 17.8467 19.1121 17.8148 18.9449 17.7432L18.9127 17.7354C14.9947 15.8559 14.1344 13.3546 14.1344 11.6504C14.1345 9.94634 14.7563 8.35362 15.9508 7.15918C17.1373 5.95681 18.7538 5.28809 20.442 5.28809ZM20.4576 0C25.0048 0.0079636 29.1305 2.65235 31.0338 6.76953C31.3679 7.45429 31.0329 8.2426 30.3482 8.58496C29.6635 8.91906 28.8752 8.58413 28.5328 7.89941C27.0834 4.75417 23.938 2.73159 20.4742 2.73145C15.5687 2.72348 11.5946 6.68928 11.5865 11.5947C11.5865 12.9563 12.2073 14.605 12.9478 15.3457C13.5132 15.8633 13.5132 16.7079 13.0035 17.2812C12.7726 17.5676 12.4306 17.6786 12.0328 17.6787C11.6904 17.6867 11.3636 17.5678 11.1168 17.3369C9.81075 16.1424 8.84694 13.7529 8.86287 11.5947C8.86302 5.22408 14.087 0.000169341 20.4576 0Z"
    fill="#00C1B6"
  />
</svg>

